<svg id="Layer_1" 
enable-background="new 0 0 110 110" 
height="50" 
viewBox="0 0 110 110"
width="50" xmlns="http://www.w3.org/2000/svg" 
xmlns:x="http://ns.adobe.com/Extensibility/1.0/" 
xmlns:i="http://ns.adobe.com/AdobeIllustrator/10.0/" 
xmlns:graph="http://ns.adobe.com/Graphs/1.0/">
<path d="m68.9638672 60.7515793s5.1098099-19.954071 23.9354095-9.3310547c0 0 11.2953568 6.1855545 6.8578949 25.1456223 0 0-.1580734-5.8140869-2.2749023-11.0467453-3.0613251-7.5674019-13.1685562-8.8045349-17.9345703-2.1771278-2.7260895 3.7907829-5.6108322 9.4535866-6.280838 16.9680901l-7.2612991-.7859039z" fill="#feda6f"/><path d="m44.4905891 39.4528198s-.0120163-.1950035-.016613-.537899c-.0359726-2.6839294.382576-14.4285488 10.5749359-12.6400204 11.4945221 2.0170288 14.8562393 29.3141499 14.8562393 29.3141499l-14.8562393 23.9354095-3.431488-20.30476s4.9753342-24.8766861-.9412804-27.8349934c0 0-4.3540611 2.8539219-4.1685257 10.593996z" fill="#4da0dc"/><circle cx="45.338" cy="41.979" fill="#4288b9" r="4.437"/><circle cx="99.532" cy="76.969" fill="#fed35b" r="3.806"/><path d="m36.033905 76.8261261s-4.0286255-12.1977844-1.0071564-21.1502838 3.5412254 7.1051254 3.5412254 7.1051254-2.8697891 4.980751-1.5269127 14.0451584z" fill="#4da0dc"/><path d="m10.8098831 70.5409088s-5.143116-21.1602478 14.0910892-25.1697807c4.5505047-.9485893 9.2690449-.5912361 13.6911793.8411179 5.3813705 1.7430534 13.1309586 5.2205086 16.4567604 11.4180717v22.6800461h-9.7694511s-1.7879105-12.5716934-8.4249306-20.7065659c-6.9400482-8.5062866-20.7001572-5.8782234-23.941349 4.6106262-.6561909 2.123497-1.1442089 4.6387177-1.3659801 7.6167908z" fill="#feda6f"/><circle cx="11.1" cy="73.164" fill="#fed35b" r="4.437"/><path d="m55.048912 57.6303177s12.0323944-18.1774979 25.0758514-15.3536568 5.3787384 28.9107399 5.3787384 28.9107399-1.4791565-23.6664658-8.4715195-20.8426247-11.0264205 29.1796837-11.0264205 29.1796837h-10.9566498z" fill="#dd584d"/><circle cx="84.852" cy="71.9" fill="#cd5248" r="4.437"/><circle cx="36.236" cy="76.227" fill="#4288b9" r="3.653"/><path d="m74.733963 82.5210648h-31.1845436s-2.3778-8.3449478-2.5533829-8.6697769l2.7046127 4.1165543-1.1291199-4.7198334 3.9166145 4.8044739v-5.4787903l3.9922905 6.0382004 1.807106-6.0382004 3.689827 5.3095093 3.1655731-5.3095093 3.1630745 5.3095093 3.689827-5.3095093 1.8095474 6.0382004 3.9922867-6.0382004v5.4787903l3.9166718-4.8044739-1.1316223 4.7198334 2.7046204-4.1165543c-.1755905.324829-2.5533829 8.6697769-2.5533829 8.6697769z" fill="#fff"/><ellipse cx="59.16" cy="82.521" fill="#467082" rx="15.61" ry="1.388"/></svg>