                        
                        <svg height="30" viewBox="0 0 256 51" fill="none" xmlns="http://www.w3.org/2000/svg">
                            <path d="M13.808 45.584C20.2933 45.584 23.536 43.3653 23.536 38.928C23.536 37.5627 23.2373 36.4107 22.64 35.472C22.0853 34.4907 21.3173 33.6587 20.336 32.976C19.3547 32.2507 18.224 31.632 16.944 31.12C15.7067 30.608 14.384 30.096 12.976 29.584C11.3547 29.0293 9.81867 28.4107 8.368 27.728C6.91733 27.0027 5.65867 26.1707 4.592 25.232C3.52533 24.2507 2.672 23.0987 2.032 21.776C1.43467 20.4533 1.136 18.8533 1.136 16.976C1.136 13.0933 2.45867 10.064 5.104 7.888C7.74933 5.712 11.3973 4.624 16.048 4.624C18.736 4.624 21.168 4.92266 23.344 5.52C25.5627 6.07466 27.184 6.69333 28.208 7.376L26.224 12.432C25.328 11.8773 23.984 11.344 22.192 10.832C20.4427 10.2773 18.3947 10 16.048 10C14.8533 10 13.744 10.128 12.72 10.384C11.696 10.64 10.8 11.024 10.032 11.536C9.264 12.048 8.64533 12.7093 8.176 13.52C7.74933 14.288 7.536 15.2053 7.536 16.272C7.536 17.4667 7.77067 18.4693 8.24 19.28C8.70933 20.0907 9.37067 20.816 10.224 21.456C11.0773 22.0533 12.0587 22.608 13.168 23.12C14.32 23.632 15.5787 24.144 16.944 24.656C18.864 25.424 20.6133 26.192 22.192 26.96C23.8133 27.728 25.2 28.6453 26.352 29.712C27.5467 30.7787 28.464 32.0587 29.104 33.552C29.744 35.0027 30.064 36.7733 30.064 38.864C30.064 42.7467 28.6347 45.7333 25.776 47.824C22.96 49.9147 18.9707 50.96 13.808 50.96C12.0587 50.96 10.4373 50.832 8.944 50.576C7.49333 50.3627 6.192 50.1067 5.04 49.808C3.888 49.4667 2.88533 49.1253 2.032 48.784C1.22133 48.4 0.581333 48.08 0.112 47.824L1.968 42.704C2.94933 43.2587 4.44267 43.8773 6.448 44.56C8.45333 45.2427 10.9067 45.584 13.808 45.584ZM66.5585 33.36C66.5585 36.0053 66.1745 38.3947 65.4065 40.528C64.6385 42.6613 63.5505 44.496 62.1425 46.032C60.7772 47.568 59.1345 48.7627 57.2145 49.616C55.2945 50.4267 53.2038 50.832 50.9425 50.832C48.6812 50.832 46.5905 50.4267 44.6705 49.616C42.7505 48.7627 41.0865 47.568 39.6785 46.032C38.3132 44.496 37.2465 42.6613 36.4785 40.528C35.7105 38.3947 35.3265 36.0053 35.3265 33.36C35.3265 30.7573 35.7105 28.3893 36.4785 26.256C37.2465 24.08 38.3132 22.224 39.6785 20.688C41.0865 19.152 42.7505 17.9787 44.6705 17.168C46.5905 16.3147 48.6812 15.888 50.9425 15.888C53.2038 15.888 55.2945 16.3147 57.2145 17.168C59.1345 17.9787 60.7772 19.152 62.1425 20.688C63.5505 22.224 64.6385 24.08 65.4065 26.256C66.1745 28.3893 66.5585 30.7573 66.5585 33.36ZM60.3505 33.36C60.3505 29.6053 59.4972 26.64 57.7905 24.464C56.1265 22.2453 53.8438 21.136 50.9425 21.136C48.0412 21.136 45.7372 22.2453 44.0305 24.464C42.3665 26.64 41.5345 29.6053 41.5345 33.36C41.5345 37.1147 42.3665 40.1013 44.0305 42.32C45.7372 44.496 48.0412 45.584 50.9425 45.584C53.8438 45.584 56.1265 44.496 57.7905 42.32C59.4972 40.1013 60.3505 37.1147 60.3505 33.36ZM87.0925 5.2C93.3218 5.2 98.1005 6.39466 101.429 8.784C104.799 11.1307 106.485 14.6507 106.485 19.344C106.485 21.904 106.015 24.1013 105.076 25.936C104.181 27.728 102.858 29.2 101.109 30.352C99.4018 31.4613 97.3112 32.272 94.8365 32.784C92.3618 33.296 89.5672 33.552 86.4525 33.552H81.5245V50H75.3165V6.288C77.0658 5.86133 79.0072 5.584 81.1405 5.456C83.3165 5.28533 85.3005 5.2 87.0925 5.2ZM87.6045 10.64C84.9592 10.64 82.9325 10.704 81.5245 10.832V28.24H86.1965C88.3298 28.24 90.2498 28.112 91.9565 27.856C93.6632 27.5573 95.0925 27.088 96.2445 26.448C97.4392 25.7653 98.3565 24.848 98.9965 23.696C99.6365 22.544 99.9565 21.072 99.9565 19.28C99.9565 17.5733 99.6152 16.1653 98.9325 15.056C98.2925 13.9467 97.3965 13.072 96.2445 12.432C95.1352 11.7493 93.8338 11.28 92.3405 11.024C90.8472 10.768 89.2685 10.64 87.6045 10.64ZM119.822 50H113.87V16.72H119.822V50ZM116.814 10.704C115.747 10.704 114.83 10.3627 114.062 9.68C113.337 8.95466 112.974 7.99467 112.974 6.8C112.974 5.60533 113.337 4.66667 114.062 3.984C114.83 3.25866 115.747 2.896 116.814 2.896C117.881 2.896 118.777 3.25866 119.502 3.984C120.27 4.66667 120.654 5.60533 120.654 6.8C120.654 7.99467 120.27 8.95466 119.502 9.68C118.777 10.3627 117.881 10.704 116.814 10.704ZM141.322 45.712C142.73 45.712 143.967 45.6907 145.034 45.648C146.143 45.5627 147.06 45.4347 147.786 45.264V35.344C147.359 35.1307 146.655 34.96 145.674 34.832C144.735 34.6613 143.583 34.576 142.218 34.576C141.322 34.576 140.362 34.64 139.338 34.768C138.356 34.896 137.439 35.1733 136.586 35.6C135.775 35.984 135.092 36.5387 134.538 37.264C133.983 37.9467 133.706 38.864 133.706 40.016C133.706 42.1493 134.388 43.6427 135.754 44.496C137.119 45.3067 138.975 45.712 141.322 45.712ZM140.81 15.888C143.199 15.888 145.204 16.208 146.826 16.848C148.49 17.4453 149.812 18.32 150.794 19.472C151.818 20.5813 152.543 21.9253 152.97 23.504C153.396 25.04 153.61 26.7467 153.61 28.624V49.424C153.098 49.5093 152.372 49.6373 151.434 49.808C150.538 49.936 149.514 50.064 148.362 50.192C147.21 50.32 145.951 50.4267 144.586 50.512C143.263 50.64 141.94 50.704 140.618 50.704C138.74 50.704 137.012 50.512 135.434 50.128C133.855 49.744 132.49 49.1467 131.338 48.336C130.186 47.4827 129.29 46.3733 128.65 45.008C128.01 43.6427 127.69 42 127.69 40.08C127.69 38.2453 128.052 36.6667 128.778 35.344C129.546 34.0213 130.57 32.9547 131.85 32.144C133.13 31.3333 134.623 30.736 136.33 30.352C138.036 29.968 139.828 29.776 141.706 29.776C142.303 29.776 142.922 29.8187 143.562 29.904C144.202 29.9467 144.799 30.032 145.354 30.16C145.951 30.2453 146.463 30.3307 146.89 30.416C147.316 30.5013 147.615 30.5653 147.786 30.608V28.944C147.786 27.9627 147.679 27.0027 147.466 26.064C147.252 25.0827 146.868 24.2293 146.314 23.504C145.759 22.736 144.991 22.1387 144.01 21.712C143.071 21.2427 141.834 21.008 140.298 21.008C138.335 21.008 136.607 21.1573 135.114 21.456C133.663 21.712 132.575 21.9893 131.85 22.288L131.146 17.36C131.914 17.0187 133.194 16.6987 134.986 16.4C136.778 16.0587 138.719 15.888 140.81 15.888ZM184.999 23.76C184.274 23.1627 183.228 22.5867 181.863 22.032C180.498 21.4773 179.004 21.2 177.383 21.2C175.676 21.2 174.204 21.52 172.967 22.16C171.772 22.7573 170.791 23.6107 170.023 24.72C169.255 25.7867 168.7 27.0667 168.359 28.56C168.018 30.0533 167.847 31.6533 167.847 33.36C167.847 37.2427 168.807 40.2507 170.727 42.384C172.647 44.4747 175.207 45.52 178.407 45.52C180.028 45.52 181.372 45.456 182.439 45.328C183.548 45.1573 184.402 44.9867 184.999 44.816V23.76ZM184.999 1.36L190.951 0.335999V49.04C189.586 49.424 187.836 49.808 185.703 50.192C183.57 50.576 181.116 50.768 178.343 50.768C175.783 50.768 173.479 50.3627 171.431 49.552C169.383 48.7413 167.634 47.5893 166.183 46.096C164.732 44.6027 163.602 42.7893 162.791 40.656C162.023 38.48 161.639 36.048 161.639 33.36C161.639 30.8 161.959 28.4533 162.599 26.32C163.282 24.1867 164.263 22.352 165.543 20.816C166.823 19.28 168.38 18.0853 170.215 17.232C172.092 16.3787 174.226 15.952 176.615 15.952C178.535 15.952 180.22 16.208 181.671 16.72C183.164 17.232 184.274 17.7227 184.999 18.192V1.36ZM212.447 45.712C213.855 45.712 215.092 45.6907 216.159 45.648C217.268 45.5627 218.185 45.4347 218.911 45.264V35.344C218.484 35.1307 217.78 34.96 216.799 34.832C215.86 34.6613 214.708 34.576 213.343 34.576C212.447 34.576 211.487 34.64 210.463 34.768C209.481 34.896 208.564 35.1733 207.711 35.6C206.9 35.984 206.217 36.5387 205.663 37.264C205.108 37.9467 204.831 38.864 204.831 40.016C204.831 42.1493 205.513 43.6427 206.879 44.496C208.244 45.3067 210.1 45.712 212.447 45.712ZM211.935 15.888C214.324 15.888 216.329 16.208 217.951 16.848C219.615 17.4453 220.937 18.32 221.919 19.472C222.943 20.5813 223.668 21.9253 224.095 23.504C224.521 25.04 224.735 26.7467 224.735 28.624V49.424C224.223 49.5093 223.497 49.6373 222.559 49.808C221.663 49.936 220.639 50.064 219.487 50.192C218.335 50.32 217.076 50.4267 215.711 50.512C214.388 50.64 213.065 50.704 211.743 50.704C209.865 50.704 208.137 50.512 206.559 50.128C204.98 49.744 203.615 49.1467 202.463 48.336C201.311 47.4827 200.415 46.3733 199.775 45.008C199.135 43.6427 198.815 42 198.815 40.08C198.815 38.2453 199.177 36.6667 199.903 35.344C200.671 34.0213 201.695 32.9547 202.975 32.144C204.255 31.3333 205.748 30.736 207.455 30.352C209.161 29.968 210.953 29.776 212.831 29.776C213.428 29.776 214.047 29.8187 214.687 29.904C215.327 29.9467 215.924 30.032 216.479 30.16C217.076 30.2453 217.588 30.3307 218.015 30.416C218.441 30.5013 218.74 30.5653 218.911 30.608V28.944C218.911 27.9627 218.804 27.0027 218.591 26.064C218.377 25.0827 217.993 24.2293 217.439 23.504C216.884 22.736 216.116 22.1387 215.135 21.712C214.196 21.2427 212.959 21.008 211.423 21.008C209.46 21.008 207.732 21.1573 206.239 21.456C204.788 21.712 203.7 21.9893 202.975 22.288L202.271 17.36C203.039 17.0187 204.319 16.6987 206.111 16.4C207.903 16.0587 209.844 15.888 211.935 15.888ZM242.364 45.712C244.796 45.712 246.588 45.392 247.74 44.752C248.935 44.112 249.532 43.088 249.532 41.68C249.532 40.2293 248.956 39.0773 247.804 38.224C246.652 37.3707 244.753 36.4107 242.108 35.344C240.828 34.832 239.591 34.32 238.396 33.808C237.244 33.2533 236.241 32.6133 235.388 31.888C234.535 31.1627 233.852 30.288 233.34 29.264C232.828 28.24 232.572 26.9813 232.572 25.488C232.572 22.544 233.66 20.2187 235.836 18.512C238.012 16.7627 240.977 15.888 244.732 15.888C245.671 15.888 246.609 15.952 247.548 16.08C248.487 16.1653 249.361 16.2933 250.172 16.464C250.983 16.592 251.687 16.7413 252.284 16.912C252.924 17.0827 253.415 17.232 253.756 17.36L252.668 22.48C252.028 22.1387 251.025 21.7973 249.66 21.456C248.295 21.072 246.652 20.88 244.732 20.88C243.068 20.88 241.617 21.2213 240.38 21.904C239.143 22.544 238.524 23.568 238.524 24.976C238.524 25.7013 238.652 26.3413 238.908 26.896C239.207 27.4507 239.633 27.9627 240.188 28.432C240.785 28.8587 241.511 29.264 242.364 29.648C243.217 30.032 244.241 30.4373 245.436 30.864C247.015 31.4613 248.423 32.0587 249.66 32.656C250.897 33.2107 251.943 33.872 252.796 34.64C253.692 35.408 254.375 36.3467 254.844 37.456C255.313 38.5227 255.548 39.8453 255.548 41.424C255.548 44.496 254.396 46.8213 252.092 48.4C249.831 49.9787 246.588 50.768 242.364 50.768C239.42 50.768 237.116 50.512 235.452 50C233.788 49.5307 232.657 49.168 232.06 48.912L233.148 43.792C233.831 44.048 234.919 44.432 236.412 44.944C237.905 45.456 239.889 45.712 242.364 45.712Z" fill="white"/>
                        </svg>
